<svg xmlns="http://www.w3.org/2000/svg" viewBox="0 0 32 32" fill="none"><circle cx="16" cy="16" r="16" fill="#1ED760"/><path d="M23.2 21.1c-.3.5-.9.7-1.4.4-3.8-2.3-8.7-2.8-14.4-1.5-.6.1-1.1-.2-1.3-.7-.1-.6.2-1.1.7-1.3 6.2-1.4 11.6-.8 15.8 1.7.5.3.7.9.4 1.4zm2-4.1c-.4.6-1.1.8-1.7.4-4.3-2.6-10.9-3.4-16-1.8-.7.2-1.4-.2-1.6-.9-.2-.7.2-1.4.9-1.6 5.7-1.7 12.9-.8 17.8 2.1.6.4.8 1.1.4 1.8zm.2-4.3C20.2 9.7 10.7 9.4 6.2 10.8c-.8.2-1.6-.2-1.8-1-.2-.8.2-1.6 1-1.8 5.2-1.5 15.5-1.1 20.7 2.3.7.4.9 1.3.5 2-.4.7-1.3.9-2 .5z" fill="#fff"/></svg> 